<?xml version="1.0" encoding="UTF-8"?>
<svg version="1.1" xmlns="http://www.w3.org/2000/svg" width="750" height="750">
<path d="M0 0 C1.3839546 -0.00435375 2.7679068 -0.0095391 4.15185547 -0.01548767 C7.89163075 -0.02881805 11.6313046 -0.02946299 15.371099 -0.02692437 C18.50207959 -0.02585054 21.63304002 -0.03074857 24.76401627 -0.03552979 C32.15551855 -0.0466045 39.54697001 -0.04707396 46.93847656 -0.04101562 C54.5433992 -0.03497785 62.14813673 -0.04728649 69.7530278 -0.06858569 C76.30107383 -0.0862452 82.84906118 -0.09219619 89.39713013 -0.08894795 C93.29971552 -0.08714177 97.20216886 -0.08970434 101.10473251 -0.10366249 C104.77711776 -0.11630722 108.44921607 -0.1142346 112.12159729 -0.1012516 C114.09723673 -0.09778714 116.07288522 -0.10901481 118.04849243 -0.12081909 C130.49664952 -0.04787372 141.60730356 2.87217527 150.96533203 11.4621582 C160.46312289 21.59901155 161.51551658 33.8363693 161.48999023 47.05932617 C161.49434399 48.44328078 161.49952934 49.82723297 161.50547791 51.21118164 C161.51880829 54.95095692 161.51945323 58.69063077 161.51691461 62.43042517 C161.51584077 65.56140577 161.52073881 68.69236619 161.52552003 71.82334244 C161.53659474 79.21484473 161.5370642 86.60629618 161.53100586 93.99780273 C161.52496808 101.60272537 161.53727673 109.2074629 161.55857593 116.81235397 C161.57623544 123.3604 161.58218642 129.90838735 161.57893819 136.4564563 C161.577132 140.35904169 161.57969457 144.26149503 161.59365273 148.16405869 C161.60629745 151.83644393 161.60422484 155.50854224 161.59124184 159.18092346 C161.58777737 161.15656291 161.59900505 163.13221139 161.61080933 165.1078186 C161.53786395 177.55597569 158.61781497 188.66662973 150.02783203 198.0246582 C145.0268485 202.74049793 138.86465449 205.69352899 132.21533203 207.2746582 C133.22321777 207.28924072 134.23110352 207.30382324 135.26953125 207.31884766 C139.0532359 207.37736325 142.83637809 207.45458627 146.61962891 207.53710938 C148.24876696 207.57011069 149.87801254 207.59821756 151.50732422 207.62109375 C165.91486829 207.82880988 178.85503327 209.26371981 189.96533203 219.4621582 C199.46079667 229.59652881 200.51478974 241.81992888 200.47602844 255.03915405 C200.47905197 256.43724096 200.48294245 257.83532622 200.48762101 259.23340857 C200.49788388 263.06118986 200.49572357 266.8888773 200.49144042 270.71666622 C200.48897008 274.85037173 200.49799117 278.98405482 200.50547791 283.11775208 C200.51821836 291.21069218 200.52001941 299.3035991 200.51767764 307.39654754 C200.5158936 313.9756992 200.51764597 320.55484079 200.52190208 327.13399124 C200.52249727 328.07086755 200.52309246 329.00774387 200.52370569 329.97301037 C200.52491746 331.87636379 200.52613159 333.7797172 200.52734806 335.68307061 C200.53822108 353.52732045 200.53606223 371.37155137 200.52996322 389.21580227 C200.52479423 405.53330789 200.53604946 421.85075381 200.55506144 438.16824763 C200.57444236 454.93115878 200.58269539 471.6940417 200.57893819 488.45696414 C200.57702653 497.8648167 200.57951021 507.27261846 200.59365273 516.68046188 C200.60557072 524.68943798 200.60696671 532.69833199 200.59486256 540.70730923 C200.58897683 544.79159447 200.58786593 548.87572959 200.59986496 552.96000481 C200.61073362 556.70309367 200.60760888 560.44590724 200.59360328 564.18898328 C200.58971195 566.17547973 200.60049541 568.16198845 200.61190015 570.14845598 C200.53698987 582.57900835 197.60453488 593.68109722 189.02783203 603.0246582 C180.38032654 611.12699487 169.46525843 613.58796466 157.96853638 613.53535461 C157.07037512 613.53918016 156.17221386 613.54300571 155.24683559 613.54694718 C152.25466579 613.55721814 149.26269001 613.55329628 146.27050781 613.54931641 C144.11809106 613.55366615 141.96567585 613.55885017 139.81326294 613.56480408 C133.97852308 613.57817713 128.14384806 613.57877462 122.30909586 613.57624078 C117.43341772 613.57516991 112.55775263 613.5800574 107.68207729 613.5848462 C96.17703896 613.59593555 84.67203328 613.59638201 73.16699219 613.59033203 C61.30863269 613.58429202 49.45039184 613.59660532 37.59205258 613.6179021 C27.40072885 613.63553024 17.20944284 613.64151753 7.01810443 613.63826436 C0.93577464 613.63645329 -5.14647051 613.63907018 -11.22878647 613.6529789 C-16.94979367 613.66557225 -22.6706162 613.66359872 -28.39162064 613.65056801 C-30.48697726 613.64820598 -32.58234695 613.65092348 -34.6776886 613.65919113 C-37.5466399 613.66969187 -40.4149753 613.66153121 -43.28390503 613.64888 C-44.10532828 613.65625429 -44.92675153 613.66362857 -45.7730664 613.67122632 C-56.82079459 613.56932757 -67.36372325 609.58748543 -75.53466797 602.0871582 C-85.03013261 591.95278759 -86.08412568 579.72938752 -86.04536438 566.51016235 C-86.0483879 565.11207544 -86.05227839 563.71399019 -86.05695695 562.31590784 C-86.06721982 558.48812655 -86.06505951 554.66043911 -86.06077635 550.83265018 C-86.05830602 546.69894468 -86.06732711 542.56526159 -86.07481384 538.43156433 C-86.0875543 530.33862423 -86.08935535 522.24571731 -86.08701358 514.15276887 C-86.08522954 507.57361721 -86.08698191 500.99447562 -86.09123802 494.41532516 C-86.09183321 493.47844885 -86.0924284 492.54157254 -86.09304162 491.57630604 C-86.09425339 489.67295262 -86.09546753 487.76959921 -86.096684 485.86624579 C-86.10755702 468.02199596 -86.10539817 450.17776503 -86.09929916 432.33351414 C-86.09413016 416.01600852 -86.1053854 399.69856259 -86.12439737 383.38106878 C-86.1437783 366.61815762 -86.15203133 349.85527471 -86.14827412 333.09235227 C-86.14636247 323.6844997 -86.14884615 314.27669794 -86.16298866 304.86885452 C-86.17490665 296.85987842 -86.17630264 288.85098441 -86.1641985 280.84200718 C-86.15831277 276.75772193 -86.15720187 272.67358681 -86.1692009 268.5893116 C-86.18006956 264.84622274 -86.17694482 261.10340917 -86.16293921 257.36033313 C-86.15904788 255.37383668 -86.16983135 253.38732795 -86.18123609 251.40086043 C-86.10632581 238.97030806 -83.17387082 227.86821919 -74.59716797 218.5246582 C-66.23469357 210.68938328 -55.50574098 208.0385557 -44.34716797 207.8605957 C-43.19885498 207.83154648 -43.19885498 207.83154648 -42.02734375 207.8019104 C-39.61322722 207.74274874 -37.19906132 207.69598676 -34.78466797 207.6496582 C-33.13490908 207.61141983 -31.4851689 207.57236482 -29.83544922 207.5324707 C-25.81867647 207.43710069 -21.80181052 207.35283993 -17.78466797 207.2746582 C-18.46956299 207.00621094 -19.15445801 206.73776367 -19.86010742 206.46118164 C-20.75947021 206.10572266 -21.65883301 205.75026367 -22.58544922 205.3840332 C-23.47659424 205.03308594 -24.36773926 204.68213867 -25.28588867 204.32055664 C-33.94793451 200.69493824 -39.8683726 193.81990855 -43.96044922 185.5246582 C-46.91669955 177.45451512 -47.07579997 170.02362042 -47.05932617 161.48999023 C-47.06367993 160.10603563 -47.06886528 158.72208343 -47.07481384 157.33813477 C-47.08814422 153.59835948 -47.08878916 149.85868563 -47.08625054 146.11889124 C-47.08517671 142.98791064 -47.09007475 139.85695022 -47.09485596 136.72597396 C-47.10593067 129.33447168 -47.10640013 121.94302023 -47.1003418 114.55151367 C-47.09430402 106.94659103 -47.10661267 99.3418535 -47.12791187 91.73696244 C-47.14557137 85.1889164 -47.15152236 78.64092905 -47.14827412 72.0928601 C-47.14646794 68.19027471 -47.14903051 64.28782137 -47.16298866 60.38525772 C-47.17563339 56.71287248 -47.17356077 53.04077417 -47.16057777 49.36839294 C-47.15711331 47.3927535 -47.16834098 45.41710502 -47.18014526 43.4414978 C-47.10719989 30.99334071 -44.18715091 19.88268667 -35.59716797 10.5246582 C-25.46031462 1.02686735 -13.22295688 -0.02552634 0 0 Z " fill="#FFFFFF" transform="translate(317.78466796875,68.725341796875)"/>
<path d="M0 0 C1.216875 -0.0103125 2.43375 -0.020625 3.6875 -0.03125 C8.10977753 0.67798319 9.60037591 2.57113757 12.193573 6.14489746 C13.58384258 8.18287574 14.93450352 10.24296121 16.27734375 12.3125 C16.79263641 13.09802246 17.30792908 13.88354492 17.83883667 14.69287109 C19.5427726 17.29240763 21.24005584 19.89622082 22.9375 22.5 C24.12862828 24.31935235 25.32028766 26.13835708 26.51245117 27.95703125 C29.03258202 31.80219744 31.55058311 35.6487465 34.06738281 39.49609375 C39.99191187 48.54726242 45.94918368 57.57686377 51.90505981 66.60742188 C53.78042615 69.45136093 55.65488109 72.29589852 57.52905273 75.140625 C58.69253512 76.90625689 59.85602746 78.67188222 61.01953125 80.4375 C61.53724091 81.22342529 62.05495056 82.00935059 62.58834839 82.8190918 C63.0823111 83.56843994 63.5762738 84.31778809 64.08520508 85.08984375 C64.79744736 86.17483154 64.79744736 86.17483154 65.52407837 87.28173828 C66.56625908 88.84810164 67.62612174 90.4027692 68.69833374 91.94873047 C69.24736359 92.74553223 69.79639343 93.54233398 70.36206055 94.36328125 C70.86279587 95.07911377 71.36353119 95.79494629 71.87944031 96.5324707 C73 98.5 73 98.5 73.1875 101.75 C71.00089048 106.8137273 66.98014341 110.24707798 62 112.5 C58.4375 112.9375 58.4375 112.9375 55 112.5 C50.81079978 109.12712846 48.13133246 104.4097545 45.23046875 99.94921875 C44.67241043 99.09938919 44.11435211 98.24955963 43.53938293 97.37397766 C41.75092492 94.64806824 39.96914189 91.91786802 38.1875 89.1875 C37.03233387 87.42484648 35.87673847 85.6624742 34.72070312 83.90039062 C28.47941782 74.38072065 22.26592475 64.84286035 16.0480957 55.30786133 C15.02388393 53.73731869 15.02388393 53.73731869 13.97898102 52.13504791 C12.31929408 49.59004929 10.65963409 47.04503309 9 44.5 C9.00276538 45.39783895 9.00553076 46.29567791 9.00837994 47.22072411 C9.07469452 69.08863859 9.12430724 90.9565357 9.15543652 112.82452965 C9.17089135 123.39982087 9.19195442 133.97504489 9.22631836 144.55029297 C9.25626307 153.76996743 9.27558506 162.9895932 9.28226548 172.20931494 C9.28616914 177.08901029 9.29531446 181.96856638 9.31719017 186.84821701 C9.33763546 191.44628598 9.3438176 196.04415903 9.33932304 200.64226913 C9.34014466 202.32481452 9.34606222 204.00736683 9.35761642 205.68987274 C9.44074193 218.42504092 8.577162 229.41603927 0 239.5 C-9.24080499 248.10221278 -18.96221007 249.68758627 -31.1875 249.75 C-32.6734668 249.7809375 -32.6734668 249.7809375 -34.18945312 249.8125 C-44.81412277 249.86823597 -53.80829178 247.46765987 -62 240.5 C-70.60221278 231.25919501 -72.18758627 221.53778993 -72.25 209.3125 C-72.2809375 207.8265332 -72.2809375 207.8265332 -72.3125 206.31054688 C-72.36823597 195.68587723 -69.96765987 186.69170822 -63 178.5 C-53.70245559 169.84496882 -43.98007668 168.32027519 -31.6875 168.3125 C-30.68009766 168.30025391 -29.67269531 168.28800781 -28.63476562 168.27539062 C-27.15073242 168.27249023 -27.15073242 168.27249023 -25.63671875 168.26953125 C-24.74686279 168.26542236 -23.85700684 168.26131348 -22.94018555 168.25708008 C-19.13856437 168.57117234 -15.69457705 169.54657839 -12 170.5 C-11.99853344 169.64816761 -11.99706688 168.79633522 -11.99555588 167.91868973 C-11.95852562 147.20439796 -11.89956124 126.49027031 -11.81609726 105.7761116 C-11.7762654 95.75894141 -11.74389401 85.74185025 -11.72900391 75.72460938 C-11.71600885 66.99492398 -11.68909926 58.26541218 -11.64538693 49.53582454 C-11.6227237 44.91231283 -11.60709222 40.28901561 -11.60811615 35.66544342 C-11.6088599 31.31511977 -11.5910244 26.96527114 -11.55883217 22.61507034 C-11.55030135 21.01711568 -11.54860474 19.41910793 -11.55419731 17.82114029 C-11.5608114 15.64120809 -11.54298219 13.4627988 -11.51898193 11.28302002 C-11.51345118 9.45233915 -11.51345118 9.45233915 -11.50780869 7.58467484 C-10.39073299 0.79901836 -6.23890523 -0.05287208 0 0 Z " fill="#FFFFFF" transform="translate(134,49.5)"/>
</svg>
