<?xml version="1.0" encoding="UTF-8"?>
<svg version="1.1" xmlns="http://www.w3.org/2000/svg" width="750" height="750">
<path d="M0 0 C1.91077212 -0.00573832 1.91077212 -0.00573832 3.86014569 -0.01159257 C7.38008703 -0.02184713 10.89992623 -0.01969727 14.41987586 -0.01541197 C18.22229079 -0.01294012 22.02468143 -0.02196461 25.8270874 -0.02944946 C33.2703146 -0.04218573 40.7135057 -0.04399149 48.15674196 -0.0416492 C54.20814786 -0.03986468 60.25954282 -0.04161855 66.31094742 -0.04587364 C67.60385976 -0.04676643 67.60385976 -0.04676643 68.92289153 -0.04767724 C70.67404595 -0.04888902 72.42520037 -0.05010316 74.17635478 -0.05131962 C90.5913568 -0.06219103 107.00633826 -0.06003456 123.42134143 -0.05393478 C138.42937753 -0.04876598 153.43734871 -0.06002079 168.44537197 -0.07903299 C183.86582889 -0.09841751 199.28625511 -0.10666632 214.70672429 -0.10290974 C223.36004531 -0.10099863 232.01331109 -0.10347651 240.66662216 -0.11762428 C248.03330919 -0.12954687 255.39990696 -0.13093314 262.76659523 -0.11883412 C266.52279196 -0.11295158 270.2788255 -0.11182857 274.03501129 -0.12383652 C278.11249969 -0.1367198 282.18960088 -0.12621607 286.26708984 -0.11352539 C287.44648034 -0.12089968 288.62587084 -0.12827396 289.84100044 -0.13587171 C301.96234437 -0.05658937 312.92649654 3.10972209 322.01052856 11.44819641 C330.85242018 20.88501809 332.56420237 32.44019274 332.53518677 44.84223938 C332.54285316 46.5462793 332.54285316 46.5462793 332.55067444 48.28474426 C332.56452595 52.02417838 332.56361695 55.76342726 332.56130981 59.50288391 C332.56519919 62.11308358 332.56953436 64.72328261 332.57429504 67.33348083 C332.58249022 72.79898204 332.58161202 78.2644315 332.57620239 83.72993469 C332.5701659 90.02611459 332.58247184 96.32207083 332.60377246 102.61821258 C332.62358555 108.70081831 332.62655357 114.78332029 332.62303734 120.86595535 C332.62354934 123.44224192 332.62876428 126.01853216 332.63884926 128.59479904 C332.65124259 132.20349401 332.64440401 135.81167705 332.63284302 139.42036438 C332.64048676 140.47523041 332.64813049 141.53009644 332.65600586 142.6169281 C332.57297649 154.39553556 329.1452887 165.21668126 321.07302856 174.01069641 C311.25925366 183.20577681 299.36249157 184.56238776 286.52105713 184.52139282 C284.61028501 184.52713114 284.61028501 184.52713114 282.66091144 184.53298539 C279.14097009 184.54323995 275.62113089 184.54109009 272.10118127 184.5368048 C268.29876633 184.53433294 264.4963757 184.54335743 260.69396973 184.55084229 C253.25074253 184.56357855 245.80755143 184.56538432 238.36431517 184.56304202 C232.31290927 184.5612575 226.2615143 184.56301138 220.21010971 184.56726646 C218.91719737 184.56815925 218.91719737 184.56815925 217.59816559 184.56907007 C215.84701118 184.57028184 214.09585676 184.57149598 212.34470235 184.57271244 C195.92970033 184.58358385 179.51471887 184.58142738 163.09971569 184.5753276 C148.0916796 184.5701588 133.08370842 184.58141361 118.07568516 184.60042582 C102.65522824 184.61981033 87.23480202 184.62805914 71.81433284 184.62430257 C63.16101182 184.62239145 54.50774604 184.62486933 45.85443497 184.63901711 C38.48774794 184.65093969 31.12115017 184.65232596 23.7544619 184.64022694 C19.99826517 184.6343444 16.24223163 184.63322139 12.48604584 184.64522934 C8.40855744 184.65811262 4.33145625 184.6476089 0.25396729 184.63491821 C-1.51511846 184.64597964 -1.51511846 184.64597964 -3.31994331 184.65726453 C-15.44128725 184.57798219 -26.40543941 181.41167073 -35.48947144 173.07319641 C-44.33136306 163.63637473 -46.04314524 152.08120008 -46.01412964 139.67915344 C-46.01924057 138.54312683 -46.0243515 137.40710022 -46.02961731 136.23664856 C-46.04346882 132.49721445 -46.04255982 128.75796556 -46.04025269 125.01850891 C-46.04414206 122.40830925 -46.04847723 119.79811021 -46.05323792 117.18791199 C-46.06143309 111.72241079 -46.06055489 106.25696132 -46.05514526 100.79145813 C-46.04910877 94.49527824 -46.06141472 88.199322 -46.08271533 81.90318024 C-46.10252843 75.82057451 -46.10549644 69.73807253 -46.10198021 63.65543747 C-46.10249221 61.0791509 -46.10770715 58.50286066 -46.11779213 55.92659378 C-46.13018546 52.31789881 -46.12334688 48.70971577 -46.11178589 45.10102844 C-46.1232515 43.5187294 -46.1232515 43.5187294 -46.13494873 41.90446472 C-46.05191936 30.12585726 -42.62423157 19.30471157 -34.55197144 10.51069641 C-24.73819653 1.31561601 -12.84143444 -0.04099494 0 0 Z " fill="#FFFFFF" transform="translate(348.7394714355469,514.7393035888672)"/>
<path d="M0 0 C1.27986328 -0.00573832 1.27986328 -0.00573832 2.58558238 -0.01159257 C5.42574062 -0.02185669 8.26569421 -0.017943 11.10586548 -0.01396179 C13.14990932 -0.01831192 15.19395153 -0.02349607 17.23799133 -0.02944946 C22.77728701 -0.04281844 28.31651437 -0.04342046 33.85582304 -0.04088616 C38.48545396 -0.03981502 43.11507115 -0.04470351 47.74469912 -0.04949158 C58.66962314 -0.06057953 69.59451278 -0.06102819 80.5194397 -0.05497742 C91.77795435 -0.04893762 103.03634402 -0.06125048 114.29483736 -0.08254749 C123.97236532 -0.10017861 133.64985356 -0.10616245 143.32739699 -0.10290974 C149.10232608 -0.10109914 154.87716603 -0.10371087 160.65208054 -0.11762428 C166.08417795 -0.13022252 171.51608091 -0.12823954 176.94817543 -0.11521339 C178.93710331 -0.11285241 180.92604496 -0.11556508 182.91495705 -0.12383652 C197.95915934 -0.18187081 211.26704701 0.75090063 222.92080688 11.44819641 C231.7626985 20.88501809 233.47448069 32.44019274 233.44546509 44.84223938 C233.45313148 46.5462793 233.45313148 46.5462793 233.46095276 48.28474426 C233.47480427 52.02417838 233.47389527 55.76342726 233.47158813 59.50288391 C233.47547751 62.11308358 233.47981268 64.72328261 233.48457336 67.33348083 C233.49276854 72.79898204 233.49189034 78.2644315 233.48648071 83.72993469 C233.48044422 90.02611459 233.49275016 96.32207083 233.51405078 102.61821258 C233.53386387 108.70081831 233.53683189 114.78332029 233.53331566 120.86595535 C233.53382766 123.44224192 233.5390426 126.01853216 233.54912758 128.59479904 C233.56152091 132.20349401 233.55468233 135.81167705 233.54312134 139.42036438 C233.55076508 140.47523041 233.55840881 141.53009644 233.56628418 142.6169281 C233.48325481 154.39553556 230.05556702 165.21668126 221.98330688 174.01069641 C213.48285167 181.97525337 202.67192185 184.57607519 191.34161377 184.52139282 C190.48837159 184.52521837 189.6351294 184.52904392 188.75603139 184.53298539 C185.91587315 184.54324951 183.07591956 184.53933582 180.23574829 184.53535461 C178.19170445 184.53970474 176.14766224 184.54488889 174.10362244 184.55084229 C168.56432676 184.56421126 163.0250994 184.56481328 157.48579073 184.56227899 C152.85615981 184.56120784 148.22654262 184.56609634 143.59691465 184.57088441 C132.67199063 184.58197236 121.74710099 184.58242101 110.82217407 184.57637024 C99.56365942 184.57033045 88.30526974 184.5826433 77.04677641 184.60394031 C67.36924845 184.62157143 57.69176021 184.62755527 48.01421678 184.62430257 C42.23928769 184.62249196 36.46444774 184.6251037 30.68953323 184.63901711 C25.25743582 184.65161534 19.82553285 184.64963236 14.39343834 184.63660622 C12.40451046 184.63424524 10.41556881 184.6369579 8.42665672 184.64522934 C-6.61754557 184.70326363 -19.92543324 183.77049219 -31.57919312 173.07319641 C-40.42108473 163.63637473 -42.13286692 152.08120008 -42.10385132 139.67915344 C-42.10896225 138.54312683 -42.11407318 137.40710022 -42.11933899 136.23664856 C-42.1331905 132.49721445 -42.1322815 128.75796556 -42.12997437 125.01850891 C-42.13386374 122.40830925 -42.13819891 119.79811021 -42.14295959 117.18791199 C-42.15115477 111.72241079 -42.15027657 106.25696132 -42.14486694 100.79145813 C-42.13883045 94.49527824 -42.15113639 88.199322 -42.17243701 81.90318024 C-42.19225011 75.82057451 -42.19521812 69.73807253 -42.19170189 63.65543747 C-42.19221389 61.0791509 -42.19742883 58.50286066 -42.20751381 55.92659378 C-42.21990714 52.31789881 -42.21306856 48.70971577 -42.20150757 45.10102844 C-42.21297318 43.5187294 -42.21297318 43.5187294 -42.22467041 41.90446472 C-42.14164104 30.12585726 -38.71395325 19.30471157 -30.64169312 10.51069641 C-22.1412379 2.54613946 -11.33030808 -0.05468237 0 0 Z " fill="#FFFFFF" transform="translate(344.8291931152344,282.7393035888672)"/>
<path d="M0 0 C1.21405518 -0.00511093 2.42811035 -0.01022186 3.67895508 -0.01548767 C6.98904766 -0.02695936 10.2988888 -0.02946475 13.60898352 -0.02692437 C16.38207788 -0.02584946 19.15514953 -0.0307513 21.92823899 -0.03552979 C28.47593987 -0.04659924 35.02358337 -0.04707698 41.57128906 -0.04101562 C48.30371589 -0.03497865 55.03593357 -0.04728561 61.76832473 -0.06858569 C67.56903241 -0.08625654 73.36967385 -0.09219441 79.17040741 -0.08894795 C82.62586864 -0.08714353 86.08118068 -0.08968639 89.53661728 -0.10366249 C93.39428522 -0.11868363 97.25169104 -0.10922292 101.109375 -0.09765625 C102.23904694 -0.10529999 103.36871887 -0.11294373 104.53262329 -0.12081909 C116.5358247 -0.0415677 127.44995399 3.2153884 136.43408203 11.4621582 C145.27597365 20.89897989 146.98775584 32.45415453 146.95874023 44.85620117 C146.96385117 45.99222778 146.9689621 47.12825439 146.97422791 48.29870605 C146.98807941 52.03814017 146.98717042 55.77738905 146.98486328 59.5168457 C146.98875266 62.12704537 146.99308783 64.7372444 146.99784851 67.34744263 C147.00604369 72.81294383 147.00516549 78.27839329 146.99975586 83.74389648 C146.99371936 90.04007638 147.00602531 96.33603262 147.02732593 102.63217437 C147.04713902 108.71478011 147.05010704 114.79728208 147.04659081 120.87991714 C147.04710281 123.45620371 147.05231775 126.03249395 147.06240273 128.60876083 C147.07479606 132.21745581 147.06795747 135.82563884 147.05639648 139.43432617 C147.06404022 140.4891922 147.07168396 141.54405823 147.07955933 142.63088989 C146.99652995 154.40949735 143.56884216 165.23064305 135.49658203 174.0246582 C125.82143885 183.0898467 114.04784133 184.57702416 101.36816406 184.54931641 C100.15410889 184.55442734 98.94005371 184.55953827 97.68920898 184.56480408 C94.37911641 184.57627577 91.06927526 184.57878116 87.75918055 184.57624078 C84.98608618 184.57516587 82.21301454 184.58006771 79.43992507 184.5848462 C72.89222419 184.59591564 66.34458069 184.59639339 59.796875 184.59033203 C53.06444818 184.58429505 46.33223049 184.59660202 39.59983933 184.6179021 C33.79913165 184.63557294 27.99849022 184.64151082 22.19775665 184.63826436 C18.74229542 184.63645993 15.28698339 184.6390028 11.83154678 184.6529789 C7.97387884 184.66800003 4.11647302 184.65853933 0.25878906 184.64697266 C-0.87088287 184.65461639 -2.00055481 184.66226013 -3.16445923 184.6701355 C-15.16766064 184.5908841 -26.08178992 181.33392801 -35.06591797 173.0871582 C-43.90780959 163.65033652 -45.61959177 152.09516187 -45.59057617 139.69311523 C-45.5956871 138.55708862 -45.60079803 137.42106201 -45.60606384 136.25061035 C-45.61991535 132.51117624 -45.61900636 128.77192736 -45.61669922 125.0324707 C-45.6205886 122.42227104 -45.62492377 119.812072 -45.62968445 117.20187378 C-45.63787963 111.73637258 -45.63700143 106.27092311 -45.6315918 100.80541992 C-45.6255553 94.50924003 -45.63786125 88.21328379 -45.65916187 81.91714203 C-45.67897496 75.8345363 -45.68194297 69.75203433 -45.67842674 63.66939926 C-45.67893875 61.09311269 -45.68415369 58.51682245 -45.69423866 55.94055557 C-45.70663199 52.3318606 -45.69979341 48.72367756 -45.68823242 45.11499023 C-45.69969803 43.53269119 -45.69969803 43.53269119 -45.71139526 41.91842651 C-45.62836589 30.13981906 -42.2006781 19.31867336 -34.12841797 10.5246582 C-24.45327479 1.4594697 -12.67967726 -0.02770776 0 0 Z " fill="#FFFFFF" transform="translate(348.31591796875,50.725341796875)"/>
<path d="M0 0 C1.70403992 -0.0076664 1.70403992 -0.0076664 3.44250488 -0.01548767 C7.181939 -0.02933918 10.92118788 -0.02843018 14.66064453 -0.02612305 C17.2708442 -0.03001243 19.88104323 -0.0343476 22.49124146 -0.03910828 C27.95674266 -0.04730346 33.42219212 -0.04642525 38.88769531 -0.04101562 C45.18387521 -0.03497913 51.47983145 -0.04728508 57.7759732 -0.06858569 C63.85857893 -0.08839879 69.94108091 -0.0913668 76.02371597 -0.08785057 C78.60000254 -0.08836257 81.17629278 -0.09357751 83.75255966 -0.10366249 C87.36125463 -0.11605582 90.96943767 -0.10921724 94.578125 -0.09765625 C95.63299103 -0.10529999 96.68785706 -0.11294373 97.77468872 -0.12081909 C109.55329618 -0.03778972 120.37444188 3.38989807 129.16845703 11.4621582 C138.01034865 20.89897989 139.72213084 32.45415453 139.69311523 44.85620117 C139.69822617 45.99222778 139.7033371 47.12825439 139.70860291 48.29870605 C139.72245441 52.03814017 139.72154542 55.77738905 139.71923828 59.5168457 C139.72312766 62.12704537 139.72746283 64.7372444 139.73222351 67.34744263 C139.74041869 72.81294383 139.73954049 78.27839329 139.73413086 83.74389648 C139.72809436 90.04007638 139.74040031 96.33603262 139.76170093 102.63217437 C139.78151402 108.71478011 139.78448204 114.79728208 139.78096581 120.87991714 C139.78147781 123.45620371 139.78669275 126.03249395 139.79677773 128.60876083 C139.80917106 132.21745581 139.80233247 135.82563884 139.79077148 139.43432617 C139.79841522 140.4891922 139.80605896 141.54405823 139.81393433 142.63088989 C139.73090495 154.40949735 136.30321716 165.23064305 128.23095703 174.0246582 C118.79413535 182.86654982 107.2389607 184.57833201 94.83691406 184.54931641 C93.70088745 184.55442734 92.56486084 184.55953827 91.39440918 184.56480408 C87.65497507 184.57865559 83.91572618 184.57774659 80.17626953 184.57543945 C77.56606987 184.57932883 74.95587083 184.583664 72.34567261 184.58842468 C66.88017141 184.59661986 61.41472194 184.59574166 55.94921875 184.59033203 C49.65303886 184.58429553 43.35708262 184.59660148 37.06094086 184.6179021 C30.97833513 184.63771519 24.89583315 184.64068321 18.81319809 184.63716698 C16.23691152 184.63767898 13.66062128 184.64289392 11.0843544 184.6529789 C7.47565943 184.66537223 3.86747639 184.65853365 0.25878906 184.64697266 C-1.32350998 184.65843826 -1.32350998 184.65843826 -2.93777466 184.6701355 C-14.71638211 184.58710613 -25.53752781 181.15941833 -34.33154297 173.0871582 C-43.17343459 163.65033652 -44.88521677 152.09516187 -44.85620117 139.69311523 C-44.8613121 138.55708862 -44.86642303 137.42106201 -44.87168884 136.25061035 C-44.88554035 132.51117624 -44.88463136 128.77192736 -44.88232422 125.0324707 C-44.8862136 122.42227104 -44.89054877 119.812072 -44.89530945 117.20187378 C-44.90350463 111.73637258 -44.90262643 106.27092311 -44.8972168 100.80541992 C-44.8911803 94.50924003 -44.90348625 88.21328379 -44.92478687 81.91714203 C-44.94459996 75.8345363 -44.94756797 69.75203433 -44.94405174 63.66939926 C-44.94456375 61.09311269 -44.94977869 58.51682245 -44.95986366 55.94055557 C-44.97225699 52.3318606 -44.96541841 48.72367756 -44.95385742 45.11499023 C-44.96532303 43.53269119 -44.96532303 43.53269119 -44.97702026 41.91842651 C-44.89399089 30.13981906 -41.4663031 19.31867336 -33.39404297 10.5246582 C-23.95722129 1.68276658 -12.40204664 -0.0290156 0 0 Z " fill="#FFFFFF" transform="translate(105.58154296875,514.725341796875)"/>
<path d="M0 0 C1.70403992 -0.0076664 1.70403992 -0.0076664 3.44250488 -0.01548767 C7.181939 -0.02933918 10.92118788 -0.02843018 14.66064453 -0.02612305 C17.2708442 -0.03001243 19.88104323 -0.0343476 22.49124146 -0.03910828 C27.95674266 -0.04730346 33.42219212 -0.04642525 38.88769531 -0.04101562 C45.18387521 -0.03497913 51.47983145 -0.04728508 57.7759732 -0.06858569 C63.85857893 -0.08839879 69.94108091 -0.0913668 76.02371597 -0.08785057 C78.60000254 -0.08836257 81.17629278 -0.09357751 83.75255966 -0.10366249 C87.36125463 -0.11605582 90.96943767 -0.10921724 94.578125 -0.09765625 C95.63299103 -0.10529999 96.68785706 -0.11294373 97.77468872 -0.12081909 C109.55329618 -0.03778972 120.37444188 3.38989807 129.16845703 11.4621582 C138.01034865 20.89897989 139.72213084 32.45415453 139.69311523 44.85620117 C139.69822617 45.99222778 139.7033371 47.12825439 139.70860291 48.29870605 C139.72245441 52.03814017 139.72154542 55.77738905 139.71923828 59.5168457 C139.72312766 62.12704537 139.72746283 64.7372444 139.73222351 67.34744263 C139.74041869 72.81294383 139.73954049 78.27839329 139.73413086 83.74389648 C139.72809436 90.04007638 139.74040031 96.33603262 139.76170093 102.63217437 C139.78151402 108.71478011 139.78448204 114.79728208 139.78096581 120.87991714 C139.78147781 123.45620371 139.78669275 126.03249395 139.79677773 128.60876083 C139.80917106 132.21745581 139.80233247 135.82563884 139.79077148 139.43432617 C139.79841522 140.4891922 139.80605896 141.54405823 139.81393433 142.63088989 C139.73090495 154.40949735 136.30321716 165.23064305 128.23095703 174.0246582 C118.79413535 182.86654982 107.2389607 184.57833201 94.83691406 184.54931641 C93.70088745 184.55442734 92.56486084 184.55953827 91.39440918 184.56480408 C87.65497507 184.57865559 83.91572618 184.57774659 80.17626953 184.57543945 C77.56606987 184.57932883 74.95587083 184.583664 72.34567261 184.58842468 C66.88017141 184.59661986 61.41472194 184.59574166 55.94921875 184.59033203 C49.65303886 184.58429553 43.35708262 184.59660148 37.06094086 184.6179021 C30.97833513 184.63771519 24.89583315 184.64068321 18.81319809 184.63716698 C16.23691152 184.63767898 13.66062128 184.64289392 11.0843544 184.6529789 C7.47565943 184.66537223 3.86747639 184.65853365 0.25878906 184.64697266 C-1.32350998 184.65843826 -1.32350998 184.65843826 -2.93777466 184.6701355 C-14.71638211 184.58710613 -25.53752781 181.15941833 -34.33154297 173.0871582 C-43.17343459 163.65033652 -44.88521677 152.09516187 -44.85620117 139.69311523 C-44.8613121 138.55708862 -44.86642303 137.42106201 -44.87168884 136.25061035 C-44.88554035 132.51117624 -44.88463136 128.77192736 -44.88232422 125.0324707 C-44.8862136 122.42227104 -44.89054877 119.812072 -44.89530945 117.20187378 C-44.90350463 111.73637258 -44.90262643 106.27092311 -44.8972168 100.80541992 C-44.8911803 94.50924003 -44.90348625 88.21328379 -44.92478687 81.91714203 C-44.94459996 75.8345363 -44.94756797 69.75203433 -44.94405174 63.66939926 C-44.94456375 61.09311269 -44.94977869 58.51682245 -44.95986366 55.94055557 C-44.97225699 52.3318606 -44.96541841 48.72367756 -44.95385742 45.11499023 C-44.96532303 43.53269119 -44.96532303 43.53269119 -44.97702026 41.91842651 C-44.89399089 30.13981906 -41.4663031 19.31867336 -33.39404297 10.5246582 C-23.95722129 1.68276658 -12.40204664 -0.0290156 0 0 Z " fill="#FFFFFF" transform="translate(105.58154296875,282.725341796875)"/>
<path d="M0 0 C1.70403992 -0.0076664 1.70403992 -0.0076664 3.44250488 -0.01548767 C7.181939 -0.02933918 10.92118788 -0.02843018 14.66064453 -0.02612305 C17.2708442 -0.03001243 19.88104323 -0.0343476 22.49124146 -0.03910828 C27.95674266 -0.04730346 33.42219212 -0.04642525 38.88769531 -0.04101562 C45.18387521 -0.03497913 51.47983145 -0.04728508 57.7759732 -0.06858569 C63.85857893 -0.08839879 69.94108091 -0.0913668 76.02371597 -0.08785057 C78.60000254 -0.08836257 81.17629278 -0.09357751 83.75255966 -0.10366249 C87.36125463 -0.11605582 90.96943767 -0.10921724 94.578125 -0.09765625 C95.63299103 -0.10529999 96.68785706 -0.11294373 97.77468872 -0.12081909 C109.55329618 -0.03778972 120.37444188 3.38989807 129.16845703 11.4621582 C138.01034865 20.89897989 139.72213084 32.45415453 139.69311523 44.85620117 C139.69822617 45.99222778 139.7033371 47.12825439 139.70860291 48.29870605 C139.72245441 52.03814017 139.72154542 55.77738905 139.71923828 59.5168457 C139.72312766 62.12704537 139.72746283 64.7372444 139.73222351 67.34744263 C139.74041869 72.81294383 139.73954049 78.27839329 139.73413086 83.74389648 C139.72809436 90.04007638 139.74040031 96.33603262 139.76170093 102.63217437 C139.78151402 108.71478011 139.78448204 114.79728208 139.78096581 120.87991714 C139.78147781 123.45620371 139.78669275 126.03249395 139.79677773 128.60876083 C139.80917106 132.21745581 139.80233247 135.82563884 139.79077148 139.43432617 C139.79841522 140.4891922 139.80605896 141.54405823 139.81393433 142.63088989 C139.73090495 154.40949735 136.30321716 165.23064305 128.23095703 174.0246582 C118.79413535 182.86654982 107.2389607 184.57833201 94.83691406 184.54931641 C93.70088745 184.55442734 92.56486084 184.55953827 91.39440918 184.56480408 C87.65497507 184.57865559 83.91572618 184.57774659 80.17626953 184.57543945 C77.56606987 184.57932883 74.95587083 184.583664 72.34567261 184.58842468 C66.88017141 184.59661986 61.41472194 184.59574166 55.94921875 184.59033203 C49.65303886 184.58429553 43.35708262 184.59660148 37.06094086 184.6179021 C30.97833513 184.63771519 24.89583315 184.64068321 18.81319809 184.63716698 C16.23691152 184.63767898 13.66062128 184.64289392 11.0843544 184.6529789 C7.47565943 184.66537223 3.86747639 184.65853365 0.25878906 184.64697266 C-1.32350998 184.65843826 -1.32350998 184.65843826 -2.93777466 184.6701355 C-14.71638211 184.58710613 -25.53752781 181.15941833 -34.33154297 173.0871582 C-43.17343459 163.65033652 -44.88521677 152.09516187 -44.85620117 139.69311523 C-44.8613121 138.55708862 -44.86642303 137.42106201 -44.87168884 136.25061035 C-44.88554035 132.51117624 -44.88463136 128.77192736 -44.88232422 125.0324707 C-44.8862136 122.42227104 -44.89054877 119.812072 -44.89530945 117.20187378 C-44.90350463 111.73637258 -44.90262643 106.27092311 -44.8972168 100.80541992 C-44.8911803 94.50924003 -44.90348625 88.21328379 -44.92478687 81.91714203 C-44.94459996 75.8345363 -44.94756797 69.75203433 -44.94405174 63.66939926 C-44.94456375 61.09311269 -44.94977869 58.51682245 -44.95986366 55.94055557 C-44.97225699 52.3318606 -44.96541841 48.72367756 -44.95385742 45.11499023 C-44.96532303 43.53269119 -44.96532303 43.53269119 -44.97702026 41.91842651 C-44.89399089 30.13981906 -41.4663031 19.31867336 -33.39404297 10.5246582 C-23.95722129 1.68276658 -12.40204664 -0.0290156 0 0 Z " fill="#FFFFFF" transform="translate(105.58154296875,50.725341796875)"/>
</svg>
